<svg width="25" height="25" viewBox="0 0 25 25" fill="none" xmlns="http://www.w3.org/2000/svg">
<g clip-path="url(#clip0_2204_1478)">
<path d="M15.8376 7.59668C15.8376 7.39777 15.9167 7.207 16.0573 7.06635C16.198 6.9257 16.3887 6.84668 16.5876 6.84668H22.5876C22.7866 6.84668 22.9773 6.9257 23.118 7.06635C23.2586 7.207 23.3376 7.39777 23.3376 7.59668C23.3376 7.79559 23.2586 7.98636 23.118 8.12701C22.9773 8.26766 22.7866 8.34668 22.5876 8.34668H16.5876C16.3887 8.34668 16.198 8.26766 16.0573 8.12701C15.9167 7.98636 15.8376 7.79559 15.8376 7.59668ZM13.5876 14.9092C13.5876 15.9535 13.1728 16.955 12.4344 17.6934C11.696 18.4318 10.6944 18.8467 9.65015 18.8467H3.83765C3.63873 18.8467 3.44797 18.7677 3.30732 18.627C3.16666 18.4864 3.08765 18.2956 3.08765 18.0967V6.09668C3.08765 5.89777 3.16666 5.707 3.30732 5.56635C3.44797 5.4257 3.63873 5.34668 3.83765 5.34668H9.27515C9.99247 5.34744 10.6929 5.56473 11.2846 5.97012C11.8764 6.3755 12.3321 6.95009 12.5919 7.61869C12.8517 8.2873 12.9037 9.01877 12.741 9.71739C12.5782 10.416 12.2084 11.0492 11.6798 11.5342C12.262 11.8844 12.7436 12.3792 13.0779 12.9706C13.4122 13.562 13.5878 14.2298 13.5876 14.9092ZM4.58765 10.9717H9.27515C9.82216 10.9717 10.3468 10.7544 10.7336 10.3676C11.1203 9.98079 11.3376 9.45619 11.3376 8.90918C11.3376 8.36217 11.1203 7.83757 10.7336 7.45077C10.3468 7.06398 9.82216 6.84668 9.27515 6.84668H4.58765V10.9717ZM12.0876 14.9092C12.0876 14.5891 12.0246 14.2721 11.9021 13.9764C11.7796 13.6807 11.6001 13.4119 11.3737 13.1856C11.1474 12.9593 10.8787 12.7797 10.5829 12.6572C10.2872 12.5347 9.97024 12.4717 9.65015 12.4717H4.58765V17.3467H9.65015C9.97024 17.3467 10.2872 17.2836 10.5829 17.1611C10.8787 17.0386 11.1474 16.8591 11.3737 16.6328C11.6001 16.4064 11.7796 16.1377 11.9021 15.842C12.0246 15.5462 12.0876 15.2293 12.0876 14.9092ZM24.0876 14.3467C24.0876 14.5456 24.0086 14.7364 23.868 14.877C23.7273 15.0177 23.5366 15.0967 23.3376 15.0967H16.6814C16.8226 15.6439 17.1155 16.1402 17.5264 16.5283C17.9373 16.9163 18.4494 17.1804 19.0038 17.2902C19.5583 17.3999 20.1324 17.3508 20.6601 17.1485C21.1879 16.9462 21.6477 16.5989 21.9867 16.1467C22.0459 16.0679 22.12 16.0015 22.2048 15.9514C22.2896 15.9012 22.3834 15.8682 22.481 15.8544C22.5785 15.8405 22.6778 15.8459 22.7733 15.8704C22.8687 15.8949 22.9584 15.938 23.0372 15.9971C23.116 16.0563 23.1823 16.1304 23.2325 16.2152C23.2827 16.3 23.3156 16.3939 23.3295 16.4914C23.3434 16.589 23.3379 16.6883 23.3134 16.7837C23.2889 16.8792 23.2459 16.9688 23.1867 17.0476C22.5453 17.9022 21.6208 18.5006 20.5786 18.7359C19.5363 18.9712 18.4444 18.8279 17.4981 18.3318C16.5518 17.8356 15.8129 17.019 15.4136 16.0279C15.0144 15.0368 14.9808 13.936 15.3189 12.9225C15.657 11.9089 16.3447 11.0487 17.259 10.4958C18.1732 9.94284 19.2544 9.73328 20.3091 9.90457C21.3637 10.0759 22.323 10.6168 23.0153 11.4307C23.7076 12.2446 24.0877 13.2782 24.0876 14.3467ZM22.4939 13.5967C22.3287 12.9514 21.9534 12.3794 21.4272 11.971C20.901 11.5625 20.2538 11.3408 19.5876 11.3408C18.9215 11.3408 18.2743 11.5625 17.7481 11.971C17.2219 12.3794 16.8466 12.9514 16.6814 13.5967H22.4939Z" fill="black"/>
</g>
<defs>
<clipPath id="clip0_2204_1478">
<rect width="24" height="24" fill="white" transform="translate(0.837646 0.0966797)"/>
</clipPath>
</defs>
</svg>
