<svg width="25" height="25" viewBox="0 0 25 25" fill="none" xmlns="http://www.w3.org/2000/svg">
<path d="M12.8377 2.34668C10.9093 2.34668 9.02422 2.91851 7.42084 3.98985C5.81746 5.06119 4.56778 6.58394 3.82983 8.36552C3.09187 10.1471 2.89879 12.1075 3.27499 13.9988C3.6512 15.8901 4.5798 17.6274 5.94336 18.991C7.30692 20.3545 9.04421 21.2831 10.9355 21.6593C12.8268 22.0355 14.7872 21.8425 16.5688 21.1045C18.3504 20.3666 19.8731 19.1169 20.9445 17.5135C22.0158 15.9101 22.5877 14.025 22.5877 12.0967C22.5849 9.51166 21.5568 7.03329 19.7289 5.2054C17.901 3.37752 15.4227 2.34941 12.8377 2.34668ZM21.0548 11.3636C20.8161 11.3523 20.577 11.3467 20.3377 11.3467C18.9464 11.3471 17.5613 11.5312 16.2183 11.8942C15.8909 10.9225 15.4685 9.98551 14.9573 9.09668C16.2905 8.29279 17.4973 7.29606 18.5386 6.13887C19.9835 7.51743 20.8778 9.37437 21.0548 11.3636ZM17.3639 5.2023C16.4271 6.23166 15.3443 7.11798 14.1502 7.83293C13.15 6.4252 11.9267 5.1902 10.5286 4.17668C11.6756 3.84185 12.8816 3.76015 14.0632 3.93724C15.2448 4.11432 16.3739 4.54596 17.3723 5.2023H17.3639ZM8.86734 4.86668C10.3998 5.83174 11.7358 7.07803 12.8048 8.5398C10.9338 9.40216 8.89785 9.84806 6.83765 9.84668C6.20181 9.84635 5.56668 9.80407 4.9364 9.72012C5.56355 7.65153 6.97416 5.90987 8.86734 4.86668ZM4.58765 12.0967C4.58761 11.7947 4.6042 11.493 4.63734 11.1929C5.36631 11.2953 6.10153 11.3467 6.83765 11.3467C9.19035 11.3489 11.5136 10.8235 13.6364 9.80918C14.1041 10.6168 14.4907 11.4688 14.7905 12.3526C13.9938 12.6519 13.2228 13.0156 12.4852 13.4401C10.4274 14.6289 8.66302 16.2648 7.32234 18.227C6.4614 17.4546 5.77289 16.5095 5.30169 15.4533C4.8305 14.397 4.5872 13.2533 4.58765 12.0967ZM8.52515 19.1279C9.74236 17.3276 11.353 15.8276 13.2352 14.7414C13.8644 14.3782 14.5211 14.0647 15.1992 13.8039C15.4313 14.8337 15.5486 15.886 15.5489 16.9417C15.5494 17.968 15.4397 18.9913 15.2217 19.9942C14.1076 20.3307 12.9349 20.4276 11.7807 20.2783C10.6264 20.129 9.51694 19.7369 8.52515 19.1279ZM16.8745 19.2901C16.9903 18.5142 17.0485 17.7308 17.0489 16.9464C17.0488 15.7322 16.9088 14.522 16.6317 13.3398C17.8401 13.0137 19.0861 12.8479 20.3377 12.8467C20.5752 12.8467 20.813 12.8526 21.0511 12.8645C20.9255 14.1931 20.48 15.4715 19.7527 16.5903C19.0253 17.7092 18.0378 18.6352 16.8745 19.2892V19.2901Z" fill="black"/>
</svg>
