<svg width="22" height="22" viewBox="0 0 22 22" fill="none" xmlns="http://www.w3.org/2000/svg">
<g clip-path="url(#clip0_2204_1473)">
<path d="M20.8494 5.54667C21.0786 4.80717 21.1522 4.02819 21.0653 3.25885C20.9785 2.48951 20.7333 1.7465 20.345 1.07667C20.2792 0.962633 20.1845 0.867939 20.0704 0.802111C19.9564 0.736284 19.827 0.701643 19.6953 0.701672C18.8217 0.699844 17.9598 0.902357 17.1785 1.29303C16.3971 1.68371 15.718 2.25172 15.1953 2.95167H12.9453C12.4226 2.25172 11.7435 1.68371 10.9621 1.29303C10.1808 0.902357 9.31889 0.699844 8.44531 0.701672C8.31363 0.701643 8.18426 0.736284 8.07022 0.802111C7.95617 0.867939 7.86147 0.962633 7.79562 1.07667C7.40736 1.7465 7.16209 2.48951 7.07528 3.25885C6.98847 4.02819 7.06201 4.80717 7.29125 5.54667C6.82787 6.35547 6.57965 7.26959 6.57031 8.20167V8.95167C6.57189 10.2207 7.03257 11.4463 7.86727 12.4021C8.70198 13.3579 9.85434 13.9795 11.1116 14.152C10.5984 14.8087 10.3198 15.6183 10.3203 16.4517V17.2017H8.07031C7.47358 17.2017 6.90128 16.9646 6.47932 16.5427C6.05737 16.1207 5.82031 15.5484 5.82031 14.9517C5.82031 14.4592 5.72332 13.9716 5.53486 13.5166C5.34641 13.0616 5.07018 12.6482 4.72196 12.3C4.37374 11.9518 3.96035 11.6756 3.50538 11.4871C3.0504 11.2987 2.56277 11.2017 2.07031 11.2017C1.8714 11.2017 1.68063 11.2807 1.53998 11.4213C1.39933 11.562 1.32031 11.7528 1.32031 11.9517C1.32031 12.1506 1.39933 12.3414 1.53998 12.482C1.68063 12.6227 1.8714 12.7017 2.07031 12.7017C2.66705 12.7017 3.23935 12.9387 3.6613 13.3607C4.08326 13.7826 4.32031 14.3549 4.32031 14.9517C4.32031 15.9462 4.7154 16.9001 5.41866 17.6033C6.12192 18.3066 7.07575 18.7017 8.07031 18.7017H10.3203V20.2017C10.3203 20.4006 10.3993 20.5914 10.54 20.732C10.6806 20.8727 10.8714 20.9517 11.0703 20.9517C11.2692 20.9517 11.46 20.8727 11.6006 20.732C11.7413 20.5914 11.8203 20.4006 11.8203 20.2017V16.4517C11.8203 15.8549 12.0574 15.2826 12.4793 14.8607C12.9013 14.4387 13.4736 14.2017 14.0703 14.2017C14.667 14.2017 15.2393 14.4387 15.6613 14.8607C16.0833 15.2826 16.3203 15.8549 16.3203 16.4517V20.2017C16.3203 20.4006 16.3993 20.5914 16.54 20.732C16.6806 20.8727 16.8714 20.9517 17.0703 20.9517C17.2692 20.9517 17.46 20.8727 17.6006 20.732C17.7413 20.5914 17.8203 20.4006 17.8203 20.2017V16.4517C17.8208 15.6183 17.5422 14.8087 17.0291 14.152C18.2863 13.9795 19.4387 13.3579 20.2734 12.4021C21.1081 11.4463 21.5687 10.2207 21.5703 8.95167V8.20167C21.561 7.26959 21.3128 6.35547 20.8494 5.54667ZM20.0703 8.95167C20.0703 9.94623 19.6752 10.9001 18.972 11.6033C18.2687 12.3066 17.3149 12.7017 16.3203 12.7017H11.8203C10.8258 12.7017 9.87192 12.3066 9.16866 11.6033C8.4654 10.9001 8.07031 9.94623 8.07031 8.95167V8.20167C8.07951 7.4517 8.30405 6.72016 8.71719 6.09417C8.7942 5.99266 8.84409 5.8732 8.86213 5.74706C8.88017 5.62092 8.86578 5.49227 8.82031 5.37323C8.62496 4.86942 8.53094 4.33201 8.54365 3.79179C8.55636 3.25158 8.67554 2.71918 8.89437 2.22511C9.50817 2.29114 10.0992 2.49447 10.6238 2.82002C11.1483 3.14557 11.5928 3.585 11.9244 4.10573C11.9919 4.2114 12.0849 4.29842 12.1948 4.35886C12.3047 4.4193 12.428 4.45121 12.5534 4.45167H15.5863C15.7121 4.45168 15.836 4.41999 15.9464 4.35953C16.0569 4.29908 16.1503 4.2118 16.2181 4.10573C16.5497 3.58496 16.9942 3.14549 17.5187 2.81993C18.0432 2.49437 18.6343 2.29107 19.2481 2.22511C19.4667 2.71931 19.5855 3.25177 19.5979 3.79198C19.6103 4.33219 19.516 4.86954 19.3203 5.37323C19.275 5.49113 19.2598 5.61848 19.2762 5.74372C19.2926 5.86897 19.34 5.98814 19.4141 6.09042C19.8313 6.71641 20.0592 7.44946 20.0703 8.20167V8.95167Z" fill="black"/>
</g>
<defs>
<clipPath id="clip0_2204_1473">
<rect width="21" height="21" fill="white" transform="translate(0.837646 0.0966797)"/>
</clipPath>
</defs>
</svg>
