<svg width="25" height="25" viewBox="0 0 25 25" fill="none" xmlns="http://www.w3.org/2000/svg">
<path d="M21.0876 2.34668H4.58765C4.18982 2.34668 3.80829 2.50471 3.52699 2.78602C3.24568 3.06732 3.08765 3.44885 3.08765 3.84668V20.3467C3.08765 20.7445 3.24568 21.126 3.52699 21.4073C3.80829 21.6886 4.18982 21.8467 4.58765 21.8467H21.0876C21.4855 21.8467 21.867 21.6886 22.1483 21.4073C22.4296 21.126 22.5876 20.7445 22.5876 20.3467V3.84668C22.5876 3.44885 22.4296 3.06732 22.1483 2.78602C21.867 2.50471 21.4855 2.34668 21.0876 2.34668ZM21.0876 20.3467H4.58765V3.84668H21.0876V20.3467ZM9.83765 10.5967V16.5967C9.83765 16.7956 9.75863 16.9864 9.61798 17.127C9.47732 17.2677 9.28656 17.3467 9.08765 17.3467C8.88873 17.3467 8.69797 17.2677 8.55732 17.127C8.41666 16.9864 8.33765 16.7956 8.33765 16.5967V10.5967C8.33765 10.3978 8.41666 10.207 8.55732 10.0663C8.69797 9.9257 8.88873 9.84668 9.08765 9.84668C9.28656 9.84668 9.47732 9.9257 9.61798 10.0663C9.75863 10.207 9.83765 10.3978 9.83765 10.5967ZM18.0876 13.2217V16.5967C18.0876 16.7956 18.0086 16.9864 17.868 17.127C17.7273 17.2677 17.5366 17.3467 17.3376 17.3467C17.1387 17.3467 16.948 17.2677 16.8073 17.127C16.6667 16.9864 16.5876 16.7956 16.5876 16.5967V13.2217C16.5876 12.7244 16.3901 12.2475 16.0385 11.8959C15.6868 11.5442 15.2099 11.3467 14.7126 11.3467C14.2154 11.3467 13.7385 11.5442 13.3868 11.8959C13.0352 12.2475 12.8376 12.7244 12.8376 13.2217V16.5967C12.8376 16.7956 12.7586 16.9864 12.618 17.127C12.4773 17.2677 12.2866 17.3467 12.0876 17.3467C11.8887 17.3467 11.698 17.2677 11.5573 17.127C11.4167 16.9864 11.3376 16.7956 11.3376 16.5967V10.5967C11.3386 10.413 11.4069 10.236 11.5297 10.0993C11.6524 9.96264 11.8211 9.87578 12.0036 9.8552C12.1862 9.83462 12.3699 9.88176 12.52 9.98767C12.6701 10.0936 12.7762 10.2509 12.818 10.4298C13.3253 10.0856 13.9169 9.88615 14.529 9.85279C15.1412 9.81944 15.7509 9.95347 16.2927 10.2405C16.8344 10.5275 17.2878 10.9567 17.604 11.4819C17.9202 12.0071 18.0874 12.6086 18.0876 13.2217ZM10.2126 7.97168C10.2126 8.19418 10.1467 8.41169 10.0231 8.5967C9.89943 8.7817 9.72373 8.9259 9.51817 9.01104C9.3126 9.09619 9.0864 9.11847 8.86817 9.07506C8.64994 9.03165 8.44949 8.92451 8.29215 8.76717C8.13482 8.60984 8.02767 8.40939 7.98426 8.19116C7.94085 7.97293 7.96313 7.74673 8.04828 7.54116C8.13343 7.33559 8.27763 7.15989 8.46263 7.03628C8.64764 6.91266 8.86514 6.84668 9.08765 6.84668C9.38601 6.84668 9.67216 6.96521 9.88314 7.17618C10.0941 7.38716 10.2126 7.67331 10.2126 7.97168Z" fill="#1A2130"/>
</svg>
