<svg width="24" height="25" viewBox="0 0 24 25" fill="none" xmlns="http://www.w3.org/2000/svg">
<path d="M9.99996 13.0156C10.4294 13.5897 10.9773 14.0648 11.6065 14.4085C12.2357 14.7523 12.9315 14.9567 13.6466 15.0079C14.3617 15.0591 15.0795 14.956 15.7513 14.7054C16.4231 14.4548 17.0331 14.0627 17.54 13.5556L20.54 10.5556C21.4507 9.61258 21.9547 8.34957 21.9433 7.03858C21.9319 5.7276 21.4061 4.47354 20.479 3.5465C19.552 2.61946 18.2979 2.09361 16.987 2.08222C15.676 2.07083 14.413 2.5748 13.47 3.48559L11.75 5.19559M14 11.0156C13.5705 10.4415 13.0226 9.96641 12.3934 9.62265C11.7642 9.27889 11.0684 9.07447 10.3533 9.02326C9.63816 8.97204 8.92037 9.07522 8.24861 9.32581C7.57685 9.5764 6.96684 9.96852 6.45996 10.4756L3.45996 13.4756C2.54917 14.4186 2.04519 15.6816 2.05659 16.9926C2.06798 18.3036 2.59382 19.5576 3.52086 20.4847C4.4479 21.4117 5.70197 21.9376 7.01295 21.949C8.32393 21.9604 9.58694 21.4564 10.53 20.5456L12.24 18.8356" stroke="#137BDD" stroke-width="2" stroke-linecap="round" stroke-linejoin="round"/>
</svg>
