<svg width="24" height="25" viewBox="0 0 24 25" fill="none" xmlns="http://www.w3.org/2000/svg">
<path d="M10 13.0156C10.4295 13.5897 10.9774 14.0648 11.6066 14.4085C12.2358 14.7523 12.9315 14.9567 13.6467 15.0079C14.3618 15.0591 15.0796 14.956 15.7514 14.7054C16.4231 14.4548 17.0331 14.0627 17.54 13.5556L20.54 10.5556C21.4508 9.61258 21.9548 8.34957 21.9434 7.03858C21.932 5.7276 21.4062 4.47354 20.4791 3.5465C19.5521 2.61946 18.298 2.09361 16.987 2.08222C15.676 2.07083 14.413 2.5748 13.47 3.48559L11.75 5.19559M14 11.0156C13.5706 10.4415 13.0227 9.96641 12.3935 9.62265C11.7643 9.27889 11.0685 9.07447 10.3534 9.02326C9.63822 8.97204 8.92043 9.07522 8.24867 9.32581C7.57691 9.5764 6.9669 9.96852 6.46002 10.4756L3.46002 13.4756C2.54923 14.4186 2.04525 15.6816 2.05665 16.9926C2.06804 18.3036 2.59388 19.5576 3.52092 20.4847C4.44796 21.4117 5.70203 21.9376 7.01301 21.949C8.32399 21.9604 9.58701 21.4564 10.53 20.5456L12.24 18.8356" stroke="#8C9097" stroke-width="2" stroke-linecap="round" stroke-linejoin="round"/>
</svg>
