<svg width="24" height="25" viewBox="0 0 24 25" fill="none" xmlns="http://www.w3.org/2000/svg">
<path d="M7.2 2.95117H9.8C13 2.95117 15 4.95117 15 8.15117V12.2012H10.56L12.63 10.1312C12.78 9.98117 12.85 9.79117 12.85 9.60117C12.85 9.41117 12.78 9.22117 12.63 9.07117C12.34 8.78117 11.86 8.78117 11.57 9.07117L8.22 12.4212C7.93 12.7112 7.93 13.1912 8.22 13.4812L11.57 16.8312C11.86 17.1212 12.34 17.1212 12.63 16.8312C12.92 16.5412 12.92 16.0612 12.63 15.7712L10.56 13.7012H15V17.7512C15 20.9512 13 22.9512 9.8 22.9512H7.21C4.01 22.9512 2.01 20.9512 2.01 17.7512V8.15117C2 4.95117 4 2.95117 7.2 2.95117Z" fill="white"/>
<path d="M21.25 12.2012C21.66 12.2012 22 12.5412 22 12.9512C22 13.3612 21.66 13.7012 21.25 13.7012H15V12.2012H21.25Z" fill="white"/>
</svg>
