<svg width="24" height="25" viewBox="0 0 24 25" fill="none" xmlns="http://www.w3.org/2000/svg">
<path d="M8.71406 14.4849H5.00406C4.79439 14.485 4.59005 14.5509 4.41994 14.6735C4.24982 14.7961 4.12253 14.969 4.05606 15.1679L2.05206 21.1679C2.00182 21.3182 1.98803 21.4783 2.01182 21.635C2.03561 21.7917 2.0963 21.9404 2.18888 22.0691C2.28147 22.1977 2.40331 22.3025 2.54434 22.3748C2.68538 22.4471 2.84158 22.4848 3.00006 22.4849H21.0001C21.1584 22.4847 21.3145 22.447 21.4554 22.3748C21.5964 22.3025 21.7181 22.1979 21.8107 22.0694C21.9033 21.9409 21.964 21.7922 21.9879 21.6357C22.0118 21.4791 21.9981 21.3191 21.9481 21.1689L19.9481 15.1689C19.8817 14.9697 19.7543 14.7964 19.584 14.6736C19.4137 14.5509 19.209 14.4848 18.9991 14.4849H15.2871M18.0001 8.48486C18.0001 12.0979 14.1311 15.9139 12.6071 17.2799C12.4327 17.413 12.2194 17.4852 12.0001 17.4852C11.7807 17.4852 11.5674 17.413 11.3931 17.2799C9.87006 15.9139 6.00006 12.0979 6.00006 8.48486C6.00006 6.89356 6.6322 5.36744 7.75742 4.24222C8.88264 3.117 10.4088 2.48486 12.0001 2.48486C13.5914 2.48486 15.1175 3.117 16.2427 4.24222C17.3679 5.36744 18.0001 6.89356 18.0001 8.48486ZM14.0001 8.48486C14.0001 9.58943 13.1046 10.4849 12.0001 10.4849C10.8955 10.4849 10.0001 9.58943 10.0001 8.48486C10.0001 7.38029 10.8955 6.48486 12.0001 6.48486C13.1046 6.48486 14.0001 7.38029 14.0001 8.48486Z" stroke="#1A2130" stroke-opacity="0.65" stroke-width="2" stroke-linecap="round" stroke-linejoin="round"/>
</svg>
