<svg width="24" height="25" viewBox="0 0 24 25" fill="none" xmlns="http://www.w3.org/2000/svg">
<path d="M21.9299 7.24487L18.5599 20.7749C18.3199 21.7849 17.4199 22.4849 16.3799 22.4849H3.23989C1.72989 22.4849 0.649901 21.0048 1.0999 19.5548L5.30989 6.03491C5.59989 5.09491 6.46991 4.44482 7.44991 4.44482H19.7499C20.6999 4.44482 21.4899 5.02483 21.8199 5.82483C22.0099 6.25483 22.0499 6.74487 21.9299 7.24487Z" stroke="#1A2130" stroke-opacity="0.65" stroke-width="1.5" stroke-miterlimit="10"/>
<path d="M16 22.4849H20.78C22.07 22.4849 23.08 21.3949 22.99 20.1049L22 6.48486" stroke="#1A2130" stroke-opacity="0.65" stroke-width="1.5" stroke-miterlimit="10" stroke-linecap="round" stroke-linejoin="round"/>
<path d="M9.67993 6.86487L10.7199 2.54492" stroke="#1A2130" stroke-opacity="0.65" stroke-width="1.5" stroke-miterlimit="10" stroke-linecap="round" stroke-linejoin="round"/>
<path d="M16.3799 6.87512L17.3199 2.53516" stroke="#1A2130" stroke-opacity="0.65" stroke-width="1.5" stroke-miterlimit="10" stroke-linecap="round" stroke-linejoin="round"/>
<path d="M7.69995 12.4849H15.7" stroke="#1A2130" stroke-opacity="0.65" stroke-width="1.5" stroke-miterlimit="10" stroke-linecap="round" stroke-linejoin="round"/>
<path d="M6.69995 16.4849H14.7" stroke="#1A2130" stroke-opacity="0.65" stroke-width="1.5" stroke-miterlimit="10" stroke-linecap="round" stroke-linejoin="round"/>
</svg>
