<svg width="24" height="25" viewBox="0 0 24 25" fill="none" xmlns="http://www.w3.org/2000/svg">
<path d="M21.9999 17.405V20.405C22.0011 20.6835 21.944 20.9591 21.8324 21.2143C21.7209 21.4695 21.5572 21.6985 21.352 21.8868C21.1468 22.0751 20.9045 22.2184 20.6407 22.3077C20.3769 22.3969 20.0973 22.43 19.8199 22.405C16.7428 22.0706 13.7869 21.0191 11.1899 19.335C8.77376 17.7996 6.72527 15.7511 5.18993 13.335C3.49991 10.7262 2.44818 7.75595 2.11993 4.66496C2.09494 4.38843 2.12781 4.10972 2.21643 3.84658C2.30506 3.58345 2.4475 3.34165 2.6347 3.13658C2.82189 2.93151 3.04974 2.76767 3.30372 2.65548C3.55771 2.54329 3.83227 2.48522 4.10993 2.48496H7.10993C7.59524 2.48018 8.06572 2.65204 8.43369 2.96849C8.80166 3.28495 9.04201 3.72441 9.10993 4.20496C9.23656 5.16503 9.47138 6.10769 9.80993 7.01496C9.94448 7.37288 9.9736 7.76187 9.89384 8.13584C9.81408 8.50981 9.6288 8.85307 9.35993 9.12496L8.08993 10.395C9.51349 12.8985 11.5864 14.9714 14.0899 16.395L15.3599 15.125C15.6318 14.8561 15.9751 14.6708 16.3491 14.5911C16.723 14.5113 17.112 14.5404 17.4699 14.675C18.3772 15.0135 19.3199 15.2483 20.2799 15.375C20.7657 15.4435 21.2093 15.6882 21.5265 16.0625C21.8436 16.4367 22.0121 16.9145 21.9999 17.405Z" stroke="#1A2130" stroke-opacity="0.65" stroke-width="2" stroke-linecap="round" stroke-linejoin="round"/>
</svg>
