<svg width="28" height="35" viewBox="0 0 28 35" fill="none" xmlns="http://www.w3.org/2000/svg">
<path d="M15.75 27.208C15.75 24.4232 16.8562 21.7525 18.8254 19.7834C20.7945 17.8143 23.4652 16.708 26.25 16.708C26.8365 16.7163 27.4215 16.7689 28 16.8655V10.4255C27.9961 9.49875 27.6248 8.61137 26.9675 7.95801L21 1.99051C20.3466 1.33323 19.4593 0.961915 18.5325 0.958008H3.5C2.57174 0.958008 1.6815 1.32676 1.02513 1.98313C0.368749 2.63951 0 3.52975 0 4.45801V30.708C0 31.6363 0.368749 32.5265 1.02513 33.1829C1.6815 33.8393 2.57174 34.208 3.5 34.208H18.4625C16.7165 32.2949 15.7489 29.7981 15.75 27.208Z" fill="white"/>
</svg>
