<svg width="24" height="25" viewBox="0 0 24 25" fill="none" xmlns="http://www.w3.org/2000/svg">
<path d="M12.16 10.8856C12.06 10.8756 11.94 10.8756 11.83 10.8856C9.45 10.8056 7.56 8.85563 7.56 6.45563C7.56 4.00563 9.54 2.01562 12 2.01562C14.45 2.01562 16.44 4.00563 16.44 6.45563C16.43 8.85563 14.54 10.8056 12.16 10.8856Z" stroke="#8C9097" stroke-width="1.5" stroke-linecap="round" stroke-linejoin="round"/>
<path d="M7.15997 14.5756C4.73997 16.1956 4.73997 18.8356 7.15997 20.4456C9.90997 22.2856 14.42 22.2856 17.17 20.4456C19.59 18.8256 19.59 16.1856 17.17 14.5756C14.43 12.7456 9.91997 12.7456 7.15997 14.5756Z" stroke="#8C9097" stroke-width="1.5" stroke-linecap="round" stroke-linejoin="round"/>
</svg>
