<svg width="25" height="25" viewBox="0 0 25 25" fill="none" xmlns="http://www.w3.org/2000/svg">
<path d="M14.6418 22.8897C14.3118 22.8897 14.0018 22.6697 13.9118 22.3297C13.8118 21.9297 14.0418 21.5197 14.4418 21.4097C18.5018 20.3397 21.3318 16.6597 21.3318 12.4597C21.3318 7.35973 17.1818 3.20973 12.0818 3.20973C7.7518 3.20973 4.9118 5.73973 3.5818 7.26973H6.5218C6.9318 7.26973 7.2718 7.60973 7.2718 8.01973C7.2718 8.42973 6.9518 8.77973 6.5318 8.77973H2.1018C2.0318 8.77973 1.9618 8.76973 1.8918 8.74973C1.8018 8.71973 1.7218 8.67973 1.6518 8.62973C1.5618 8.56973 1.4918 8.48973 1.4418 8.39973C1.3918 8.29973 1.3518 8.19973 1.3418 8.08973C1.3418 8.05973 1.3418 8.03973 1.3418 8.00973V3.46973C1.3418 3.05973 1.6818 2.71973 2.0918 2.71973C2.5018 2.71973 2.8418 3.05973 2.8418 3.46973V5.85973C4.4718 4.10973 7.5418 1.71973 12.0918 1.71973C18.0218 1.71973 22.8418 6.53973 22.8418 12.4697C22.8418 17.3497 19.5518 21.6297 14.8318 22.8697C14.7718 22.8797 14.7018 22.8897 14.6418 22.8897Z" fill="#1A2130" fill-opacity="0.65"/>
<path d="M11.3818 23.1997C11.3618 23.1997 11.3318 23.1997 11.3118 23.1897C10.2418 23.1197 9.1918 22.8797 8.1918 22.4897C7.9018 22.3797 7.7118 22.0897 7.7118 21.7797C7.7118 21.6897 7.7318 21.5997 7.7618 21.5197C7.9118 21.1397 8.3518 20.9397 8.7318 21.0897C9.5918 21.4297 10.5018 21.6297 11.4218 21.6997H11.4318C11.8318 21.7197 12.1318 22.0597 12.1318 22.4597C12.1318 22.4697 12.1318 22.4897 12.1318 22.4997C12.1018 22.8897 11.7718 23.1997 11.3818 23.1997ZM5.8718 21.0497C5.7018 21.0497 5.5418 20.9997 5.4018 20.8897C4.5618 20.2197 3.8318 19.4297 3.2218 18.5397C3.1318 18.4097 3.0818 18.2697 3.0818 18.1197C3.0818 17.8697 3.2018 17.6397 3.4118 17.4997C3.7418 17.2697 4.2318 17.3597 4.4518 17.6897C4.9818 18.4597 5.6118 19.1397 6.3418 19.7097C6.5118 19.8497 6.6218 20.0597 6.6218 20.2897C6.6218 20.4597 6.5718 20.6297 6.4618 20.7697C6.3218 20.9497 6.1018 21.0497 5.8718 21.0497ZM2.5318 16.1697C2.2018 16.1697 1.9118 15.9597 1.8218 15.6497C1.5018 14.6197 1.3418 13.5497 1.3418 12.4697C1.3418 12.0597 1.6818 11.7197 2.0918 11.7197C2.5018 11.7197 2.8418 12.0597 2.8418 12.4697C2.8418 13.3997 2.9818 14.3197 3.2518 15.1997C3.2718 15.2697 3.2818 15.3497 3.2818 15.4297C3.2818 15.7597 3.0718 16.0397 2.7618 16.1397C2.6818 16.1597 2.6118 16.1697 2.5318 16.1697Z" fill="#1A2130" fill-opacity="0.65"/>
<path d="M12.0918 16.4697C14.3009 16.4697 16.0918 14.6789 16.0918 12.4697C16.0918 10.2606 14.3009 8.46973 12.0918 8.46973C9.88266 8.46973 8.0918 10.2606 8.0918 12.4697C8.0918 14.6789 9.88266 16.4697 12.0918 16.4697Z" fill="#1A2130" fill-opacity="0.65"/>
</svg>
