<svg width="34" height="36" viewBox="0 0 34 36" fill="none" xmlns="http://www.w3.org/2000/svg">
<path fill-rule="evenodd" clip-rule="evenodd" d="M20.4879 1.22443C19.8399 0.958008 19.0182 0.958008 17.375 0.958008C15.7317 0.958008 14.9101 0.958008 14.2621 1.22443C13.3979 1.57966 12.7114 2.26102 12.3535 3.11861C12.1901 3.5101 12.1261 3.96538 12.1011 4.62949C12.0643 5.60545 11.56 6.50882 10.7078 6.99714C9.85556 7.48544 8.81512 7.4672 7.9451 7.01084C7.35306 6.70028 6.9238 6.52759 6.50048 6.47229C5.57315 6.35112 4.63531 6.60052 3.89328 7.16561C3.33674 7.58942 2.92593 8.29558 2.10432 9.70788C1.28271 11.1202 0.871919 11.8263 0.780359 12.5166C0.658261 13.4369 0.909561 14.3677 1.47896 15.1041C1.73885 15.4403 2.10409 15.7228 2.67097 16.0763C3.50434 16.596 4.04056 17.4813 4.0405 18.458C4.04045 19.4347 3.50425 20.3198 2.67097 20.8394C2.10401 21.1931 1.73869 21.4757 1.47878 21.8119C0.909386 22.5483 0.658104 23.4789 0.780184 24.3993C0.871744 25.0895 1.28256 25.7958 2.10415 27.208C2.92575 28.6203 3.33657 29.3266 3.8931 29.7502C4.63514 30.3153 5.57298 30.5647 6.5003 30.4436C6.92361 30.3883 7.35283 30.2156 7.94482 29.9051C8.81491 29.4487 9.85542 29.4305 10.7077 29.9188C11.56 30.4072 12.0643 31.3105 12.1011 32.2867C12.1261 32.9506 12.1901 33.406 12.3535 33.7975C12.7114 34.655 13.3979 35.3364 14.2621 35.6917C14.9101 35.958 15.7317 35.958 17.375 35.958C19.0182 35.958 19.8399 35.958 20.4879 35.6917C21.352 35.3364 22.0386 34.655 22.3965 33.7975C22.5599 33.406 22.6239 32.9506 22.649 32.2865C22.6857 31.3105 23.1899 30.4072 24.0421 29.9188C24.8944 29.4303 25.9349 29.4487 26.805 29.9051C27.3971 30.2156 27.8262 30.3881 28.2495 30.4434C29.1768 30.5647 30.1147 30.3153 30.8567 29.7502C31.4133 29.3264 31.8241 28.6203 32.6457 27.2078C33.4673 25.7956 33.878 25.0895 33.9697 24.3993C34.0917 23.4789 33.8404 22.5481 33.2711 21.8117C33.0111 21.4755 32.6459 21.1929 32.0789 20.8394C31.2457 20.3198 30.7095 19.4345 30.7095 18.4578C30.7095 17.4812 31.2457 16.5962 32.0789 16.0766C32.646 15.7229 33.0112 15.4405 33.2713 15.1041C33.8406 14.3678 34.0919 13.437 33.9699 12.5167C33.8782 11.8265 33.4675 11.1203 32.6459 9.70801C31.8242 8.29571 31.4135 7.58954 30.8568 7.16573C30.1148 6.60064 29.177 6.35125 28.2497 6.47242C27.8263 6.52772 27.3971 6.70039 26.8052 7.01091C25.9351 7.46729 24.8946 7.48554 24.0423 6.99719C23.1901 6.50885 22.6857 5.60541 22.6488 4.6294C22.6238 3.96535 22.5599 3.51009 22.3965 3.11861C22.0386 2.26102 21.352 1.57966 20.4879 1.22443ZM17.375 23.708C20.2966 23.708 22.6649 21.3576 22.6649 18.458C22.6649 15.5584 20.2966 13.208 17.375 13.208C14.4534 13.208 12.085 15.5584 12.085 18.458C12.085 21.3576 14.4534 23.708 17.375 23.708Z" fill="#519CE3"/>
</svg>
