<svg width="24" height="25" viewBox="0 0 24 25" fill="none" xmlns="http://www.w3.org/2000/svg">
<path d="M10.0005 6.46973H14.0005C16.0005 6.46973 16.0005 5.46973 16.0005 4.46973C16.0005 2.46973 15.0005 2.46973 14.0005 2.46973H10.0005C9.00049 2.46973 8.00049 2.46973 8.00049 4.46973C8.00049 6.46973 9.00049 6.46973 10.0005 6.46973Z" stroke="#1A2130" stroke-opacity="0.65" stroke-width="1.5" stroke-miterlimit="10" stroke-linecap="round" stroke-linejoin="round"/>
<path d="M16.0005 4.48975C19.3305 4.66975 21.0005 5.89975 21.0005 10.4697V16.4697C21.0005 20.4697 20.0005 22.4697 15.0005 22.4697H9.00049C4.00049 22.4697 3.00049 20.4697 3.00049 16.4697V10.4697C3.00049 5.90975 4.67049 4.66975 8.00049 4.48975" stroke="#1A2130" stroke-opacity="0.65" stroke-width="1.5" stroke-miterlimit="10" stroke-linecap="round" stroke-linejoin="round"/>
<path d="M15.7234 10.7568L8.27734 18.2031" stroke="#1A2130" stroke-opacity="0.65" stroke-width="1.5" stroke-linecap="round"/>
<path d="M8.27734 10.7568L15.7234 18.2031" stroke="#1A2130" stroke-opacity="0.65" stroke-width="1.5" stroke-linecap="round"/>
</svg>
