<svg width="15" height="16" viewBox="0 0 15 16" fill="none" xmlns="http://www.w3.org/2000/svg">
<path d="M14.5246 4.46042L11.3823 1.31885C11.2778 1.21436 11.1538 1.13147 11.0173 1.07492C10.8808 1.01837 10.7345 0.989258 10.5867 0.989258C10.439 0.989258 10.2927 1.01837 10.1562 1.07492C10.0196 1.13147 9.89561 1.21436 9.79114 1.31885L1.12091 9.98909C1.01599 10.0932 0.932804 10.2171 0.876193 10.3536C0.819581 10.4901 0.790671 10.6365 0.791143 10.7843V13.9266C0.791143 14.225 0.90967 14.5111 1.12065 14.7221C1.33163 14.9331 1.61777 15.0516 1.91614 15.0516H13.7286C13.8778 15.0516 14.0209 14.9923 14.1264 14.8868C14.2319 14.7813 14.2911 14.6383 14.2911 14.4891C14.2911 14.3399 14.2319 14.1968 14.1264 14.0913C14.0209 13.9859 13.8778 13.9266 13.7286 13.9266H6.64958L14.5246 6.05159C14.6291 5.94712 14.712 5.82309 14.7685 5.68658C14.8251 5.55007 14.8542 5.40376 14.8542 5.256C14.8542 5.10824 14.8251 4.96193 14.7685 4.82542C14.712 4.68892 14.6291 4.56489 14.5246 4.46042ZM12.0411 6.94385L8.89958 3.80159L10.5871 2.11409L13.7286 5.25635L12.0411 6.94385Z" fill="white"/>
</svg>
